<svg width="13" height="19" viewBox="0 0 13 19" fill="none" xmlns="http://www.w3.org/2000/svg">
<path d="M3.31562 18.75C1.19651 11.8819 5.67414 9.37418 5.67414 9.37418C5.36085 13.0391 7.4783 15.8943 7.4783 15.8943C8.25706 15.6632 9.7435 14.583 9.7435 14.583C9.7435 15.8943 8.95918 18.7484 8.95918 18.7484C8.95918 18.7484 11.7049 16.6602 12.5692 13.192C13.4324 9.72384 10.925 6.24199 10.925 6.24199C11.0761 8.69671 10.2318 11.111 8.57757 12.9555C8.66033 12.8615 8.72977 12.7571 8.78309 12.6441C9.08027 12.0595 9.55741 10.5401 9.27801 7.02162C8.88474 2.08267 4.3349 0 4.3349 0C4.72706 3.00927 3.55114 3.70258 0.796571 9.41461C-1.958 15.1256 3.31562 18.75 3.31562 18.75Z" fill="white"/>
</svg>
