<svg width="92" height="40" viewBox="0 0 92 40" fill="none" xmlns="http://www.w3.org/2000/svg">
<path d="M26.9078 0.00592041H0.157227L6.79391 6.64495H26.9078V0.00592041Z" fill="white"/>
<path d="M26.9078 40H0.157227L6.79391 33.3546H26.9078V40Z" fill="white"/>
<path d="M16.87 16.6837H0.157227V23.3227H16.87V16.6837Z" fill="white"/>
<path d="M35.7927 0.00640869V9.91074L50.1807 19.662L35.7927 30.1658V40L64.263 20L35.7927 0.00640869Z" fill="white"/>
<path d="M58.569 0.00637755L64.9381 6.64541H73.9314C73.9314 6.64541 85.3195 9.08163 84.9437 19.662C84.9437 19.662 85.1666 30.9885 74.4537 32.94H65.0146L58.569 39.9936H75.5046C75.5046 39.9936 87.4213 37.5191 90.8671 26.486C90.8671 26.486 94.5357 15.6824 87.6443 7.57653C87.6443 7.57653 83.5234 1.04592 75.581 0H58.569V0.00637755Z" fill="white"/>
</svg>
