<svg width="24" height="24" viewBox="0 0 24 24" fill="none" xmlns="http://www.w3.org/2000/svg">
<g clip-path="url(#clip0_23_518)">
<path d="M8.19831 11.9627L9.41739 10.7452C9.52347 10.6211 9.60376 10.4772 9.65358 10.3217C9.70341 10.1663 9.72176 10.0025 9.70757 9.83991C9.63498 9.18414 9.69342 8.52049 9.87947 7.88749C9.91991 7.73559 9.92251 7.5761 9.88704 7.42296C9.85158 7.26983 9.77913 7.12772 9.67603 7.00906L6.09449 3.42594C6.0469 3.37537 5.98914 3.33544 5.92501 3.30878C5.86089 3.28213 5.79185 3.26935 5.72243 3.27129C5.65301 3.27322 5.58479 3.28983 5.52225 3.32002C5.45971 3.35021 5.40427 3.39329 5.35957 3.44644C4.57327 4.42412 4.17504 5.65739 4.24109 6.91029C4.30714 8.16319 4.83283 9.34775 5.71757 10.2373L7.44289 11.9627C7.54312 12.0627 7.67897 12.1189 7.8206 12.1189C7.96223 12.1189 8.09807 12.0627 8.19831 11.9627ZM14.0918 14.2179C13.928 14.2035 13.763 14.2221 13.6064 14.2725C13.4499 14.3228 13.305 14.404 13.1803 14.5112L13.1614 14.5301C13.0612 14.6306 13.005 14.7668 13.005 14.9086C13.005 15.0505 13.0612 15.1866 13.1614 15.2871L17.9178 20.0436C18.0183 20.1438 18.1544 20.2 18.2963 20.2C18.4382 20.2 18.5743 20.1438 18.6748 20.0436L20.3134 18.4034C20.3632 18.3538 20.4027 18.2948 20.4296 18.2298C20.4566 18.1649 20.4705 18.0953 20.4705 18.0249C20.4705 17.9546 20.4566 17.885 20.4296 17.8201C20.4027 17.7551 20.3632 17.6961 20.3134 17.6464L16.9211 14.2526C16.8019 14.1489 16.6589 14.0762 16.5048 14.041C16.3508 14.0058 16.1904 14.0091 16.038 14.0507C15.4062 14.232 14.7453 14.2888 14.0918 14.2179ZM20.7755 8.58456C20.8253 8.5349 20.8648 8.4759 20.8917 8.41096C20.9187 8.34601 20.9325 8.27638 20.9325 8.20606C20.9325 8.13574 20.9187 8.06612 20.8917 8.00117C20.8648 7.93622 20.8253 7.87722 20.7755 7.82756L20.4459 7.49795C20.3454 7.3978 20.2093 7.34156 20.0674 7.34156C19.9255 7.34156 19.7894 7.3978 19.6889 7.49795L16.642 10.5417C16.5923 10.5915 16.5333 10.631 16.4684 10.6579C16.4034 10.6849 16.3338 10.6988 16.2635 10.6988C16.1932 10.6988 16.1235 10.6849 16.0586 10.6579C15.9936 10.631 15.9346 10.5915 15.885 10.5417L15.5554 10.2121C15.4553 10.1119 15.3991 9.97603 15.3991 9.83439C15.3991 9.69276 15.4553 9.55692 15.5554 9.45668L18.5991 6.41135C18.6491 6.36193 18.6887 6.3031 18.7157 6.23827C18.7428 6.17344 18.7567 6.10389 18.7567 6.03364C18.7567 5.96339 18.7428 5.89384 18.7157 5.82901C18.6887 5.76417 18.6491 5.70535 18.5991 5.65593L18.2695 5.32632C18.22 5.27658 18.1611 5.23712 18.0963 5.21019C18.0315 5.18327 17.962 5.1694 17.8918 5.1694C17.8216 5.1694 17.7521 5.18327 17.6873 5.21019C17.6225 5.23712 17.5636 5.27658 17.5141 5.32632L14.4703 8.37008C14.4209 8.42 14.3621 8.45963 14.2973 8.48668C14.2324 8.51373 14.1629 8.52765 14.0926 8.52765C14.0224 8.52765 13.9528 8.51373 13.888 8.48668C13.8232 8.45963 13.7643 8.42 13.7149 8.37008L13.3837 8.0452C13.2837 7.94496 13.2275 7.80912 13.2275 7.66749C13.2275 7.52586 13.2837 7.39002 13.3837 7.28978L16.4275 4.24602C16.4773 4.19636 16.5168 4.13736 16.5437 4.07242C16.5707 4.00747 16.5845 3.93784 16.5845 3.86752C16.5845 3.7972 16.5707 3.72758 16.5437 3.66263C16.5168 3.59768 16.4773 3.53868 16.4275 3.48902L16.0979 3.15626C15.9977 3.0562 15.8618 3 15.7202 3C15.5785 3 15.4427 3.0562 15.3425 3.15626L11.9202 6.57852C11.4587 7.04302 11.1234 7.6177 10.9463 8.24807C10.7691 8.87845 10.7558 9.54363 10.9077 10.1806C10.9423 10.3354 10.9405 10.4962 10.9024 10.6503C10.8644 10.8043 10.7912 10.9475 10.6885 11.0685L4.15626 17.5991C4.0562 17.6994 4 17.8352 4 17.9768C4 18.1185 4.0562 18.2543 4.15626 18.3546L5.57563 19.7739C5.67586 19.874 5.81171 19.9302 5.95334 19.9302C6.09497 19.9302 6.23081 19.874 6.33105 19.7739L12.8601 13.2369C12.9811 13.1342 13.1242 13.0609 13.2783 13.0228C13.4324 12.9848 13.5932 12.983 13.748 13.0177C14.385 13.1701 15.0503 13.1571 15.6807 12.9799C16.3112 12.8026 16.8858 12.4671 17.3501 12.0052L20.7755 8.58456Z" fill="white"/>
</g>
<defs>
<clipPath id="clip0_23_518">
<rect width="24" height="24" fill="white"/>
</clipPath>
</defs>
</svg>
