<svg width="25" height="24" viewBox="0 0 25 24" fill="none" xmlns="http://www.w3.org/2000/svg">
<mask id="mask0_40_163" style="mask-type:alpha" maskUnits="userSpaceOnUse" x="0" y="0" width="25" height="24">
<rect x="0.5" width="24" height="24" fill="#D9D9D9"/>
</mask>
<g mask="url(#mask0_40_163)">
<path d="M7 20C5.48333 20 4.18767 19.475 3.113 18.425C2.03767 17.375 1.5 16.0917 1.5 14.575C1.5 13.275 1.89167 12.1167 2.675 11.1C3.45833 10.0833 4.48333 9.43333 5.75 9.15C6.16667 7.61667 7 6.375 8.25 5.425C9.5 4.475 10.9167 4 12.5 4C14.45 4 16.104 4.679 17.462 6.037C18.8207 7.39567 19.5 9.05 19.5 11C20.65 11.1333 21.6043 11.629 22.363 12.487C23.121 13.3457 23.5 14.35 23.5 15.5C23.5 16.75 23.0627 17.8127 22.188 18.688C21.3127 19.5627 20.25 20 19 20H13.5C12.95 20 12.4793 19.8043 12.088 19.413C11.696 19.021 11.5 18.55 11.5 18V12.85L9.9 14.4L8.5 13L12.5 9L16.5 13L15.1 14.4L13.5 12.85V18H19C19.7 18 20.2917 17.7583 20.775 17.275C21.2583 16.7917 21.5 16.2 21.5 15.5C21.5 14.8 21.2583 14.2083 20.775 13.725C20.2917 13.2417 19.7 13 19 13H17.5V11C17.5 9.61667 17.0127 8.43733 16.038 7.462C15.0627 6.48733 13.8833 6 12.5 6C11.1167 6 9.93767 6.48733 8.963 7.462C7.98767 8.43733 7.5 9.61667 7.5 11H7C6.03333 11 5.20833 11.3417 4.525 12.025C3.84167 12.7083 3.5 13.5333 3.5 14.5C3.5 15.4667 3.84167 16.2917 4.525 16.975C5.20833 17.6583 6.03333 18 7 18H9.5V20H7Z" fill="#222222"/>
</g>
</svg>
